REM MD5 2b55ddb57a7b20e3e0f7535a115bfbee
FILE "Dengeki PlayStation D27 (Japan).bin" BINARY
  TRACK 01 MODE2/2352
    INDEX 01 00:00:00
  TRACK 02 AUDIO
    INDEX 00 61:08:38
    INDEX 01 61:10:38
  TRACK 03 AUDIO
    INDEX 00 63:49:37
    INDEX 01 63:51:37
REM LEADOUT 67:08:74
